<?xml version="1.0" encoding="UTF-8" standalone="no"?>
<!-- Generator: Adobe Illustrator 19.0.0, SVG Export Plug-In . SVG Version: 6.00 Build 0)  -->

<svg
   xmlns:dc="http://purl.org/dc/elements/1.1/"
   xmlns:cc="http://creativecommons.org/ns#"
   xmlns:rdf="http://www.w3.org/1999/02/22-rdf-syntax-ns#"
   xmlns:svg="http://www.w3.org/2000/svg"
   xmlns="http://www.w3.org/2000/svg"
   xmlns:sodipodi="http://sodipodi.sourceforge.net/DTD/sodipodi-0.dtd"
   xmlns:inkscape="http://www.inkscape.org/namespaces/inkscape"
   version="1.1"
   id="Layer_1"
   x="0px"
   y="0px"
   viewBox="0 0 55 55"
   xml:space="preserve"
   sodipodi:docname="reply.svg"
   width="55"
   height="55"
   inkscape:version="0.92.2 2405546, 2018-03-11"><metadata
   id="metadata86"><rdf:RDF><cc:Work
       rdf:about=""><dc:format>image/svg+xml</dc:format><dc:type
         rdf:resource="http://purl.org/dc/dcmitype/StillImage" /><dc:title></dc:title></cc:Work></rdf:RDF></metadata><defs
   id="defs84" /><sodipodi:namedview
   pagecolor="#ffffff"
   bordercolor="#666666"
   borderopacity="1"
   objecttolerance="10"
   gridtolerance="10"
   guidetolerance="10"
   inkscape:pageopacity="0"
   inkscape:pageshadow="2"
   inkscape:window-width="1920"
   inkscape:window-height="1025"
   id="namedview82"
   showgrid="false"
   inkscape:zoom="6.98"
   inkscape:cx="48"
   inkscape:cy="36.538682"
   inkscape:window-x="0"
   inkscape:window-y="27"
   inkscape:window-maximized="1"
   inkscape:current-layer="Layer_1" />
<style
   type="text/css"
   id="style77">
	.st0{fill:#333333;}
</style>
<g
   id="XMLID_2_"
   transform="translate(-20.241756,-19.440678)">
	<path
   id="XMLID_6_"
   class="st0"
   d="m 63.7,42.1 c 0,2.8 -1,5.5 -2.9,7.9 -1.9,2.4 -4.5,4.3 -7.9,5.7 -3.3,1.4 -6.9,2.1 -10.8,2.1 -1.8,0 -3.6,-0.2 -5.4,-0.5 -2.5,1.8 -5.4,3.1 -8.5,3.9 -0.7,0.2 -1.6,0.3 -2.6,0.5 h -0.1 c -0.2,0 -0.4,-0.1 -0.6,-0.2 -0.2,-0.2 -0.3,-0.4 -0.4,-0.6 0,-0.1 0,-0.1 0,-0.2 0,-0.1 0,-0.1 0,-0.2 0,-0.1 0,-0.1 0.1,-0.2 l 0.1,-0.2 0.1,-0.2 0.1,-0.2 0.1,-0.2 0.1,-0.1 c 0.1,-0.1 0.3,-0.4 0.7,-0.8 0.4,-0.4 0.6,-0.7 0.8,-0.9 0.2,-0.2 0.4,-0.5 0.7,-0.9 0.3,-0.4 0.6,-0.8 0.8,-1.2 0.2,-0.4 0.4,-0.9 0.6,-1.4 -2.5,-1.5 -4.5,-3.3 -6,-5.4 -1.5,-2.1 -2.2,-4.4 -2.2,-6.9 0,-2.8 1,-5.5 2.9,-7.9 1.9,-2.4 4.5,-4.3 7.9,-5.7 3.3,-1.4 6.9,-2.1 10.8,-2.1 3.9,0 7.5,0.7 10.8,2.1 3.3,1.4 5.9,3.3 7.9,5.7 2,2.6 2.9,5.3 2.9,8.1 z M 75.5,50 c 0,2.5 -0.7,4.8 -2.2,6.9 -1.5,2.1 -3.4,3.9 -6,5.4 0.2,0.5 0.4,0.9 0.6,1.4 0.2,0.4 0.5,0.8 0.8,1.2 0.3,0.4 0.5,0.7 0.7,0.9 0.2,0.2 0.4,0.5 0.8,0.9 0.4,0.4 0.6,0.6 0.7,0.8 0,0 0.1,0.1 0.1,0.1 0.1,0.1 0.1,0.1 0.1,0.2 0,0 0.1,0.1 0.1,0.2 0,0.1 0.1,0.1 0.1,0.2 l 0.1,0.2 0.1,0.2 v 0.2 0.2 c -0.1,0.3 -0.2,0.5 -0.4,0.7 -0.2,0.2 -0.4,0.2 -0.7,0.2 -1,-0.1 -1.9,-0.3 -2.6,-0.5 -3.2,-0.8 -6,-2.1 -8.5,-3.9 -1.8,0.3 -3.6,0.5 -5.4,0.5 -5.5,0 -10.4,-1.4 -14.5,-4.1 1.2,0.1 2.1,0.1 2.7,0.1 3.3,0 6.5,-0.5 9.5,-1.4 3,-0.9 5.7,-2.2 8.1,-4 2.6,-1.9 4.5,-4.1 5.9,-6.5 1.4,-2.5 2.1,-5.1 2.1,-7.8 0,-1.6 -0.2,-3.1 -0.7,-4.7 2.6,1.5 4.7,3.3 6.3,5.5 1.6,2.2 2.2,4.3 2.2,6.9 z"
   inkscape:connector-curvature="0"
   style="fill:#333333" />
</g>
</svg>